<svg xmlns="http://www.w3.org/2000/svg" id="logo-laborchimica" width="200.815" height="79.569" viewBox="0 0 200.815 79.569"><path id="Tracciato_978" data-name="Tracciato 978" d="M5.162,26.189V10.876H7.735V24.052h11.7v2.137Zm21.268,0,8.436-15.313h2.752L46.2,26.189H43.362L41.388,22.42H30.948l-1.974,3.769Zm5.594-5.727h8.316l-4.158-7.834Zm23.931,5.727V10.876H68.4a3.658,3.658,0,0,1,2.483.7,2.915,2.915,0,0,1,.778,2.27v1.781q0,2.285-2.573,2.611a2.709,2.709,0,0,1,2.662,3v1.959q0,3-4.278,3ZM69.028,15.8V14.259a1.246,1.246,0,0,0-.374-1.068,2.127,2.127,0,0,0-1.211-.267H58.528v4.244h8.914Q69.028,17.167,69.028,15.8Zm.12,6.469V21a2.114,2.114,0,0,0-.374-1.454,1.824,1.824,0,0,0-1.331-.386H58.528v4.926h8.914a1.824,1.824,0,0,0,1.331-.386A2.058,2.058,0,0,0,69.147,22.272ZM83.416,14.5a4.052,4.052,0,0,1,.763-2.864,4.076,4.076,0,0,1,2.857-.757H97.715a4.015,4.015,0,0,1,2.842.757A4.11,4.11,0,0,1,101.3,14.5v8.072a4.11,4.11,0,0,1-.748,2.864,4.015,4.015,0,0,1-2.842.757H87.035a4.076,4.076,0,0,1-2.857-.757,4.052,4.052,0,0,1-.763-2.864Zm2.573,9.556H98.762v-11.1H85.989ZM113.9,26.189V10.876h12.444a3.658,3.658,0,0,1,2.483.7,2.915,2.915,0,0,1,.778,2.27v3.413a2.915,2.915,0,0,1-.778,2.27,3.658,3.658,0,0,1-2.483.7h-2.273l7.06,5.965H127.3l-6.282-5.965H116.47v5.965Zm11.427-13.325H116.47v5.371h8.854a2,2,0,0,0,1.3-.326A1.621,1.621,0,0,0,127,16.663V14.437a1.627,1.627,0,0,0-.374-1.232A1.932,1.932,0,0,0,125.325,12.864ZM18.235,32.737H7.526v11.1H18.235V40.008l2.573.534v1.81a4.1,4.1,0,0,1-.748,2.879,4.072,4.072,0,0,1-2.842.742H8.573a4.076,4.076,0,0,1-2.857-.757,4.052,4.052,0,0,1-.763-2.864V34.281a4.052,4.052,0,0,1,.763-2.864,4.076,4.076,0,0,1,2.857-.757h8.645a4.072,4.072,0,0,1,2.842.742,4.1,4.1,0,0,1,.748,2.879v1.454l-2.573.475ZM27,45.973V30.66h2.573v6.262H41.747V30.66h2.573V45.973H41.747V39.029H29.572v6.944Zm24.738,0V30.66H54.31V45.973ZM63.793,33.39a17.464,17.464,0,0,1,.12,2.255V45.973H61.729V30.66h2.094l7.508,9.971,7-9.971h2.363V45.973H78.331V35.646l.12-2.255a11.684,11.684,0,0,1-.927,1.662L71.63,43.569h-.658l-6.132-8.28A13.115,13.115,0,0,1,63.793,33.39Zm24.35,12.583V30.66h2.573V45.973Zm23.063-13.236H100.5v11.1h10.709V40.008l2.573.534v1.81a4.1,4.1,0,0,1-.748,2.879,4.072,4.072,0,0,1-2.842.742h-8.645a4.076,4.076,0,0,1-2.857-.757,4.052,4.052,0,0,1-.763-2.864V34.281a4.052,4.052,0,0,1,.763-2.864,4.076,4.076,0,0,1,2.857-.757h8.645a4.072,4.072,0,0,1,2.842.742,4.1,4.1,0,0,1,.748,2.879v1.454l-2.573.475Zm5.743,13.236,8.436-15.313h2.752l8.585,15.313H133.88L131.906,42.2h-10.44l-1.974,3.769Zm5.594-5.727h8.316L126.7,32.411Z" transform="translate(64.094 33.596)" fill="#eef1f4"></path><text id="_" data-name=" " transform="translate(174.558 33.188)" fill="#cfd5dc" font-size="28" font-family="Helvetica"><tspan x="0" y="0"> </tspan></text><path id="Tracciato_974" data-name="Tracciato 974" d="M238.775,320.487,211.8,330.633v52.881l9.2,2.671V332.029Z" transform="translate(-169.925 -306.918)" fill="#449b23"></path><path id="Tracciato_975" data-name="Tracciato 975" d="M191.036,312.547v61.327l8.566,2.485v-62.8l28.634-10.906Z" transform="translate(-165.087 -302.655)" fill="#dce1e6"></path><path id="Tracciato_976" data-name="Tracciato 976" d="M180.981,320.487,157.2,326.955v43.654l6.392,1.855V328.35Z" transform="translate(-157.204 -306.918)" fill="#a1c04f"></path><path id="Tracciato_977" data-name="Tracciato 977" d="M172.7,337.944v39.874l6.774,1.966v-41.08l5-2.711v-1.9Z" transform="translate(-160.815 -310.172)" fill="#b7bec6"></path></svg>